# xmcd
#
# Track frame offsets: 
#        150
#        23948
#        43708
#        59818
#        78753
#        91476
#        115146
#        130111
#        147936
#        164777
#        181626
#        204150
#        216965
#        233648
#
# Disc length: 3401 seconds
#
# Revision: 1
# Processed by: cddbd v1.5.2PL0 Copyright (c) Steve Scherf et al.
# Submitted via: ExactAudioCopy v0.99pb4
#
DISCID=c00d470e
DTITLE=Silk Road Music - Stockfish Records-Art of Recording
DYEAR=2009
DGENRE=Country
TTITLE0=David Roth-Where have all the flowers gone
TTITLE1=Allan Taylor-The tennessee Waltz
TTITLE2=Sara K-I can't stand the rain
TTITLE3=Steve Strauss-Closer
TTITLE4=The Tiptons-Gypsy Wedding
TTITLE5=L Capart&D Balance-Au large du Gueveur
TTITLE6=The paperboys-Comfort and kind
TTITLE7=Bass Swing Trio& Barbara Bukle-Easy to love
TTITLE8=Chris Jones-No sanctuary Here
TTITLE9=Eugene Ruffolo-Beyond love
TTITLE10=Ewen Carruthers-The amber room
TTITLE11=The spririt of Gambo-Tweede stuck voor de fiool de Gamba
TTITLE12=Blue chamber quartet-Children's song 12&16
TTITLE13=Gergely Boganyi-Chopin-Nocturne ES-DUR OP9 Nr2
EXTD=
EXTT0=
EXTT1=
EXTT2=
EXTT3=
EXTT4=
EXTT5=
EXTT6=
EXTT7=
EXTT8=
EXTT9=
EXTT10=
EXTT11=
EXTT12=
EXTT13=
PLAYORDER=
